<?xml version="1.0" encoding="utf-8"?>
<!-- Generator: Adobe Illustrator 19.2.1, SVG Export Plug-In . SVG Version: 6.00 Build 0)  -->
<svg version="1.1" id="layer" xmlns="http://www.w3.org/2000/svg" xmlns:xlink="http://www.w3.org/1999/xlink" x="0px" y="0px"
	 viewBox="0 0 652 652" style="enable-background:new 0 0 652 652;" xml:space="preserve">
<style type="text/css">
	.st0{fill:#3B4550;}
	.st1{fill:#64BC4F;}
</style>
<path class="st0" d="M56.6,323.1l9.8,5.6v-12.7l26.7-15.6l-9.6-6l-26.8,15.8V323.1z M98.8,303.8l-9.8,5.6l11.3,6.6l-0.2,30.1
	l9.8-5.6v-30.3L98.8,303.8z M94.5,349.7v-10.9l-11.3,6.6l-26.7-15.6v10.9l26.8,15.6L94.5,349.7z"/>
<path class="st1" d="M83.4,258.1l22.2,12.9l-58.4,34.6v29.8L26,323v-31.4L83.4,258.1z M141.3,358.1l-22.2,13.2v-66.1l-26.8-15.8
	l22.5-13l26.5,15.4V358.1z M26,358.5v-24.5l57.4,32.8l26.4-15.8l0.2,25.4L84,391.8L26,358.5z"/>
<path class="st0" d="M215.9,298.2c8,0,14.5,2.7,19.5,8c4.7,5.1,7.1,11.7,7.1,19.6c0,7.9-2.4,14.5-7.1,19.6c-5,5.3-11.4,8-19.5,8
	s-14.5-2.7-19.5-8c-4.7-5.1-7.1-11.7-7.1-19.6c0-7.9,2.4-14.5,7.1-19.6C201.4,300.9,207.8,298.2,215.9,298.2z M215.9,346.1
	c5.8,0,10.3-1.9,13.7-6c3.2-3.9,4.8-8.5,4.8-14.3c0-5.8-1.6-10.6-4.8-14.3c-3.4-4-7.9-6-13.7-6c-5.8,0-10.3,1.9-13.7,6
	c-3.2,3.9-4.8,8.5-4.8,14.3c0,5.8,1.6,10.6,4.8,14.3C205.4,344.2,210.1,346.1,215.9,346.1z M261.1,299.2v8.4
	c1.9-2.6,4.3-4.7,7.1-6.6c2.7-1.8,5.9-2.7,9.5-2.7c3.5,0,6.6,0.5,9.2,1.4c2.6,1,4.8,2.6,6.8,4.5c4.3,4.3,6.6,10.1,6.6,17.2v31.2h-8
	v-30.9c0-5-1.4-8.9-4.2-11.7c-2.7-2.9-6.4-4.3-10.8-4.3c-4.5,0-8.4,1.4-11.4,4.5c-3.2,3.1-4.7,6.9-4.7,11.7v30.9h-8v-53.6H261.1z
	 M345,313.5c-0.6-5.6-5.1-8.4-13.3-8.4s-12.4,2.6-12.4,7.7c0,2.1,0.8,3.7,2.6,4.8c1.8,1.1,4,2.1,6.6,2.7c2.6,0.6,5.5,1.4,8.7,1.9
	c3.1,0.6,5.9,1.4,8.7,2.6c2.6,1.1,4.8,2.6,6.6,4.5c1.8,1.9,2.6,4.5,2.6,7.9c0,5.1-1.9,9.2-5.9,11.9c-3.9,2.7-9.2,4.2-15.9,4.2
	c-7.1,0-12.9-1.8-17-5.3c-3.9-3.2-5.9-7.2-6.3-12.4h8.4c0.5,5,3.2,8.2,8.4,10c1.9,0.6,3.7,0.8,5.5,0.8c1.8,0,3.5-0.2,5.1-0.3
	c1.6-0.2,3.1-0.6,4.7-1.1c3.4-1.3,5.1-3.7,5.1-6.9c0-2.3-0.8-3.9-2.6-5.1c-1.8-1.1-4-2.1-6.6-2.9c-2.6-0.8-5.5-1.4-8.7-2.1
	c-3.1-0.6-5.9-1.4-8.7-2.6c-2.6-1.1-4.8-2.6-6.6-4.3c-1.8-1.9-2.6-4.3-2.6-7.7c0-4.8,1.8-8.7,5.3-11.3c3.5-2.7,8.7-4,15.6-4
	c6.6,0,11.7,1.6,15.4,4.7c3.2,2.6,5,6.1,5.5,10.5h-8V313.5z M373.1,277.6v29.8c1.9-2.6,4.3-4.7,7.1-6.6c2.7-1.8,5.9-2.7,9.5-2.7
	c3.5,0,6.6,0.5,9.2,1.4c2.6,1,4.8,2.6,6.8,4.5c4.3,4.3,6.6,10.1,6.6,17.2v31.2h-8v-30.7c0-5-1.4-8.9-4.2-11.7
	c-2.7-2.9-6.4-4.3-10.8-4.3c-4.5,0-8.4,1.4-11.4,4.5c-3.2,3.1-4.7,6.9-4.7,11.7v30.9h-8v-75.1H373.1z M467.3,344.1
	c-4.3,6.3-10.6,9.5-19.1,9.5c-7.7,0-14-2.7-18.8-8c-4.7-5.3-7.1-11.7-7.1-19.6c0-7.7,2.4-14.3,7.1-19.6c4.8-5.3,11.3-8,19.3-8
	c8,0,14.3,3.2,18.6,9.5V299h8v53.6h-8V344.1z M449.3,346.1c5.8,0,10.3-1.9,13.7-6c3.2-3.9,4.8-8.5,4.8-14.3c0-5.8-1.6-10.6-4.8-14.3
	c-3.4-4-7.9-6-13.7-6c-5.6,0-10.3,1.9-13.8,6c-3.4,3.9-5,8.5-5,14.3c0,5.8,1.6,10.6,5,14.3C438.9,344.2,443.5,346.1,449.3,346.1z
	 M497.2,307.7c4.3-6.3,10.6-9.5,19.1-9.5c7.7,0,14,2.7,18.6,8c4.8,5.3,7.2,11.7,7.2,19.6c0,7.7-2.4,14.3-7.2,19.6
	c-4.8,5.3-11.3,8-19.3,8c-8,0-14.3-3.2-18.7-9.5V374h-8v-74.8h8v8.5H497.2z M515.4,305.4c-5.8,0-10.3,1.9-13.7,6
	c-3.2,3.9-4.8,8.5-4.8,14.3c0,5.8,1.6,10.6,4.8,14.3c3.4,4,7.9,6,13.7,6c5.6,0,10.3-1.9,13.8-6c3.4-3.9,5-8.5,5-14.3
	c0-5.8-1.6-10.6-5-14.3C525.7,307.5,521,305.4,515.4,305.4z M576.7,346.1c7.2,0,12.4-3.1,15.4-9h8.8c-1.9,4.8-4.8,8.9-8.8,11.7
	c-4,3.1-9.2,4.5-15.6,4.5c-8,0-14.6-2.7-19.6-8c-5-5.1-7.4-11.7-7.4-19.6s2.4-14.5,7.1-19.6c5-5.3,11.4-8,19.5-8
	c8,0,14.5,2.7,19.5,8c4.7,5.1,7.1,11.7,7.1,19.6v3.2h-44.9c0.6,5,2.6,9,5.9,12.2C567,344.5,571.3,346.1,576.7,346.1z M576,305.4
	c-5,0-9,1.6-12.4,4.7c-3.2,2.9-5,6.8-5.8,11.4h36.3c-0.6-4.7-2.6-8.5-5.8-11.4C585,307,581,305.4,576,305.4z"/>
<path class="st0" d="M617.6,315.3c-4.7,0-8.4-3.9-8.4-8.4c0-4.7,3.9-8.4,8.4-8.4c4.7,0,8.4,3.9,8.4,8.4S622.3,315.3,617.6,315.3z
	 M617.6,299.2c-4.2,0-7.6,3.4-7.6,7.6c0,4.2,3.4,7.6,7.6,7.6c4.2,0,7.6-3.4,7.6-7.6C625.2,302.5,621.7,299.2,617.6,299.2z"/>
<path class="st0" d="M618.5,302.5c0.8,0,1.4,0.2,1.9,0.6c0.5,0.5,0.6,1,0.6,1.8c0,0.5-0.2,1-0.3,1.4c-0.3,0.5-0.6,0.6-1.1,0.8
	c0.3,0,0.5,0.2,0.6,0.3c0.2,0.2,0.3,0.3,0.3,0.5c0.2,0.2,0.2,0.3,0.2,0.5s0,0.5,0.2,0.6c0,0.2,0,0.5,0,0.6s0,0.5,0,0.6
	s0.2,0.5,0.2,0.6c0,0.2,0.2,0.3,0.3,0.5h-1.3c-0.2-0.2-0.2-0.2-0.2-0.3c0-0.2,0-0.3,0-0.5c0-0.2,0-0.5,0-0.6c0-0.2,0-0.5,0-0.6
	c0-0.2,0-0.5-0.2-0.6c0-0.2-0.2-0.3-0.2-0.5c-0.2-0.2-0.3-0.3-0.5-0.3c-0.2-0.2-0.5-0.2-0.6-0.2h-2.9v3.9h-1.1v-8.9h4V302.5z
	 M618.8,306.6c0.3,0,0.5-0.2,0.6-0.3c0.2-0.2,0.3-0.3,0.5-0.5c0.2-0.2,0.2-0.5,0.2-0.8c0-0.5-0.2-0.8-0.3-1.1
	c-0.3-0.3-0.6-0.5-1.3-0.5h-2.9v3.1h2.4C618.3,306.6,618.5,306.6,618.8,306.6z"/>
</svg>
