<?xml version="1.0" encoding="iso-8859-1"?>
<!-- Generated manually with Inkspace then taking a model source file from Cura  -->
<svg version="1.1" xmlns="http://www.w3.org/2000/svg" xmlns:xlink="http://www.w3.org/1999/xlink" x="0px" y="0px"
	 viewBox="0 0 30 30" style="enable-background:new 0 0 30 30;" xml:space="preserve">
<g id="Layer_1" transform="matrix(3.8898607,0,0,3.8898607,-0.43788465,-0.43788469)">
	<path
   d="m 3.0286721,0.61413293 c -0.8133809,0 -1.479437,0.66394257 -1.479437,1.47730967 0,0.7191773 0.5206652,1.3228922 1.2035527,1.4531988 V 5.8120253 A 0.78095936,0.78095936 0 0 0 2.2464028,6.5425238 0.78095936,0.78095936 0 0 0 3.0272557,7.3233767 0.78095936,0.78095936 0 0 0 3.80811,6.5425238 0.78095936,0.78095936 0 0 0 3.3428594,5.8283366 c 0.011803,-0.041475 0.026982,-0.072409 0.042559,-0.096454 C 3.4198804,5.6787696 3.4617114,5.6464766 3.5407362,5.616283 3.6987452,5.555896 3.9964113,5.548924 4.3208823,5.541101 4.645334,5.532871 5.0071131,5.523122 5.3286868,5.3297539 5.5549468,5.1937187 5.7274226,4.9586203 5.8130828,4.6368448 A 0.78095936,0.78095936 0 0 0 6.3882649,3.8836505 0.78095936,0.78095936 0 0 0 5.6074106,3.1027962 0.78095936,0.78095936 0 0 0 4.8265536,3.8836505 0.78095936,0.78095936 0 0 0 5.2662729,4.5864904 C 5.2175791,4.7283694 5.1409701,4.8009859 5.0471248,4.857412 4.8885133,4.9527958 4.6164224,4.984046 4.3074064,4.9914571 3.998389,4.9983192 3.661993,4.9804776 3.3449922,5.1013886 3.3308699,5.1067411 3.316528,5.112917 3.3024331,5.1191067 V 3.54534 c 0.683475,-0.1294338 1.20355,-0.7339625 1.20355,-1.453907 0,-0.8133671 -0.6639247,-1.47730556 -1.477311,-1.47730968 z m 0,0.50142097 c 0.542661,0 0.9758901,0.4332469 0.9758901,0.9758887 0,0.542661 -0.4332291,0.9780173 -0.9758901,0.9780173 -0.5426556,0 -0.9787256,-0.4353563 -0.9787256,-0.9780173 0,-0.5426418 0.43607,-0.9758887 0.9787256,-0.9758887 z"
   id="path2" />
</g>
<g id="Comments">
</g>
</svg>
